<svg xmlns="http://www.w3.org/2000/svg" width="39" height="39">
    <path fill-rule="evenodd" d="M35.746 36.006c-2.061 2.004-5.004 3.004-8.24 3.004h-16.04c-3.238 0-6.181-1-8.241-3.004-2.208-1.999-3.238-4.857-3.238-8.146V11.136c0-6.575 4.562-11.151 11.479-11.151h16.187c3.385 0 6.18 1.143 8.24 3.146 2.061 2 3.091 4.717 3.091 8.005V27.86c0 3.289-1.177 6.147-3.238 8.146zm.238-25.034c0-2.359-.76-4.276-2.129-5.75-1.521-1.475-3.499-2.212-6.083-2.212H11.046c-2.433 0-4.561.737-5.93 2.064-1.369 1.329-2.129 3.39-2.129 5.749V28.04c0 2.358.76 4.422 2.281 5.896 1.521 1.328 3.497 2.063 5.931 2.063h16.573c2.433 0 4.562-.735 5.931-2.063 1.521-1.326 2.281-3.391 2.281-5.75V10.972zM29.5 11a2.5 2.5 0 1 1 0-5 2.5 2.5 0 0 1 0 5zm-10 18a9.5 9.5 0 0 1-9.5-9.5 9.5 9.5 0 0 1 9.5-9.5 9.5 9.5 0 0 1 9.5 9.5 9.5 9.5 0 0 1-9.5 9.5zm0-16a6.5 6.5 0 1 0 0 13 6.5 6.5 0 0 0 0-13z"/>
</svg>
