<svg xmlns="http://www.w3.org/2000/svg" xmlns:xlink="http://www.w3.org/1999/xlink" preserveAspectRatio="xMidYMid" width="41" height="41" viewBox="0 0 41 41">
  <defs>
    <style>
      .cls-1 {
        fill: #000;
        fill-rule: evenodd;
      }
    </style>
  </defs>
  <path d="M20.500,-0.000 C9.178,-0.000 -0.000,9.178 -0.000,20.500 C-0.000,31.821 9.178,41.000 20.500,41.000 C31.822,41.000 41.000,31.821 41.000,20.500 C41.000,9.178 31.822,-0.000 20.500,-0.000 ZM33.952,9.922 C36.156,12.720 37.505,16.216 37.611,20.019 C33.011,19.214 29.045,19.190 25.617,19.733 C25.183,18.736 24.736,17.767 24.277,16.829 C27.953,15.317 31.250,13.112 33.952,9.922 ZM31.593,7.472 C29.179,10.402 26.149,12.419 22.720,13.792 C20.526,9.725 18.268,6.336 16.464,3.862 C17.759,3.545 19.109,3.376 20.499,3.376 C24.731,3.375 28.603,4.922 31.593,7.472 ZM13.139,5.042 C14.883,7.370 17.203,10.742 19.472,14.877 C14.663,16.197 9.283,16.554 3.837,16.569 C5.039,11.475 8.516,7.252 13.139,5.042 ZM3.377,20.499 L3.391,19.945 L3.484,19.945 C9.585,19.945 15.643,19.546 21.074,17.945 C21.479,18.769 21.877,19.615 22.267,20.485 C15.121,22.579 10.666,27.282 7.613,31.756 C4.979,28.746 3.377,24.806 3.377,20.499 ZM10.109,34.095 C13.000,29.742 17.028,25.434 23.583,23.625 C25.114,27.549 26.363,31.830 27.024,36.327 C25.013,37.163 22.810,37.624 20.501,37.624 C16.595,37.624 12.992,36.308 10.109,34.095 ZM30.173,34.620 C29.473,30.511 28.325,26.592 26.942,22.959 C29.938,22.578 33.382,22.671 37.374,23.404 C36.576,28.045 33.908,32.054 30.173,34.620 Z" class="cls-1"/>
</svg>
