<svg xmlns="http://www.w3.org/2000/svg" width="76" height="84">
    <defs>
        <filter id="a">
            <feFlood flood-color="#FFF" flood-opacity="1" result="floodOut"/>
            <feComposite in="floodOut" in2="SourceGraphic" operator="atop" result="compOut"/>
            <feBlend in="compOut" in2="SourceGraphic"/>
        </filter>
    </defs>
    <path fill-rule="evenodd" d="M73.618 69.858c-.868-.024-1.414-.676-1.52-1.655a67.903 67.903 0 0 0-.576-4.138c-.14-.818-.637-1.314-1.515-1.499-1.919-.403-3.815-.919-5.735-1.318-.323-.066-.83.118-1.065.366-.94.988-1.806 2.048-2.7 3.081-1.16 1.338-1.945 1.358-3.115.067-.962-1.062-1.89-2.156-2.894-3.174-.237-.241-.757-.391-1.088-.319-1.753.387-3.478.9-5.231 1.282-.872.19-1.251.692-1.323 1.498a197.117 197.117 0 0 0-.307 3.978c-.079 1.152-.644 1.829-1.551 1.83-.959 0-1.627-.721-1.502-1.925.198-1.908.439-3.825.881-5.687.342-1.44 1.393-2.343 2.921-2.687 2.205-.496 4.395-1.066 6.577-1.656.929-.252 1.605.003 2.209.709.884 1.035 1.805 2.037 2.811 3.167.968-1.11 1.862-2.093 2.705-3.118.672-.816 1.421-1.028 2.463-.742 2.34.642 4.706 1.188 7.069 1.74 1.006.233 1.752.786 2.288 1.636 1.341 2.13 1.721 4.522 1.782 6.972a1.547 1.547 0 0 1-1.584 1.592zM62.796 55.773c-1.68 1.59-3.974 1.801-5.897.503-1.153-.778-2.261-1.816-2.99-2.985-1.498-2.405-2.18-5.13-2.201-7.978-.034-4.81 2.673-7.565 7.484-7.683 3.828-.096 7.144 1.97 7.704 5.311.818 4.889-.4 9.333-4.1 12.832zm-1.728-14.842c-.964-.18-1.991-.2-2.968-.095-1.811.196-2.723 1.078-3.13 2.856-.133.577-.143 1.186-.216 1.845.104.771.152 1.607.337 2.413.437 1.897 1.076 3.709 2.515 5.124 1.255 1.233 2.676 1.164 3.776-.17 1.931-2.342 2.754-5.063 2.709-8.054-.032-2.105-1.141-3.568-3.023-3.919zm-4.275-6.867c-4.127-.177-8.267-.057-12.401-.012a2.872 2.872 0 0 0-1.613.558c-2.85 2.196-5.658 4.45-8.474 6.692-.617.489-1.232.959-2.075.553-.863-.417-.947-1.19-.938-2.031.021-1.893.007-3.785.007-5.817-1.195 0-2.232.069-3.258-.013-4.097-.333-7.859-4.331-7.917-8.574-.08-5.833-.079-11.667.001-17.499.055-4.015 3.68-7.545 7.859-7.575C38.052.274 48.122.247 58.189.357c4.06.044 8.488 3.536 8.302 8.624-.188 5.126-.179 10.27.003 15.397.164 4.625-4.543 9.904-9.701 9.686zm3.39-30.195a8.063 8.063 0 0 0-2.442-.4c-3.699-.042-7.399-.017-11.099-.017-6.165 0-12.332-.014-18.497.005-2.899.01-4.861 1.69-4.885 4.308-.055 5.964-.066 11.93.001 17.894.034 3.016 2.416 5.22 5.429 5.245 1.266.009 2.533-.008 3.8.002 1.393.011 1.939.552 1.946 1.927.007 1.363.001 2.728.001 4.326.467-.346.759-.549 1.038-.77 2.011-1.593 3.992-3.227 6.048-4.757.541-.404 1.31-.691 1.979-.698 4.632-.059 9.265-.013 13.898-.036 3.205-.015 5.903-2.744 5.91-5.953.013-5.532.009-11.062.001-16.594-.003-2.226-1.06-3.787-3.128-4.482zm-6.459 16.666c-1.561.018-3.196-1.566-3.211-3.109-.015-1.539 1.604-3.148 3.165-3.146 1.556.002 3.179 1.617 3.166 3.152-.012 1.484-1.624 3.087-3.12 3.103zm-9.609-.004c-1.548.023-3.204-1.582-3.207-3.108-.003-1.538 1.615-3.143 3.172-3.146 1.539-.004 3.181 1.637 3.157 3.158-.024 1.5-1.61 3.073-3.122 3.096zm-11.237 0c-1.554.005-3.185-1.608-3.177-3.144.008-1.483 1.612-3.09 3.107-3.113 1.557-.023 3.2 1.553 3.225 3.095.026 1.535-1.593 3.157-3.155 3.162zm-8.327 19.511c5.079 1.123 7.536 4.381 7.524 10.654-.094 2.945-.969 6.581-2.745 9.961-.565 1.076-1.329 2.088-2.168 2.972-2.537 2.675-6.056 3.003-9.028.815-1.059-.779-2.117-1.701-2.831-2.785-2.78-4.221-4.076-8.911-3.443-13.947.619-4.922 3.757-7.683 8.727-7.956 1.315-.072 2.682.002 3.964.286zm-9.659 8.095c-.091.589-.079 1.195-.131 2.07.321 3.986 1.199 8.006 4.392 11.183 1.584 1.576 4.546 2.173 6.352-.487 2.643-3.895 3.853-8.157 3.363-12.835-.255-2.436-1.628-4.167-4.035-4.795-1.265-.33-2.626-.425-3.94-.403-3.583.059-5.456 1.749-6.001 5.267zm2.224 20.437c1.493 1.699 3.061 3.332 4.708 5.109 1.621-1.749 3.167-3.354 4.635-5.027.787-.896 1.602-1.07 2.742-.753a201.99 201.99 0 0 0 9.279 2.365c1.664.379 2.708 1.351 3.374 2.822 1.263 2.795 1.487 5.783 1.529 8.788a1.553 1.553 0 0 1-1.596 1.583c-.859-.031-1.421-.702-1.505-1.669-.179-2.052-.35-4.107-.617-6.147-.18-1.373-.919-2.194-2.417-2.494-2.637-.531-5.235-1.266-7.836-1.966-.604-.163-.986-.055-1.396.399-1.567 1.728-3.162 3.43-4.755 5.133-1.029 1.099-1.828 1.103-2.861.004-1.597-1.7-3.19-3.404-4.757-5.132-.41-.452-.792-.571-1.397-.408a270.732 270.732 0 0 1-8.221 2.076c-1.006.233-1.662.759-1.792 1.741-.285 2.137-.476 4.289-.71 6.432-.043.395.03.939-.196 1.147-.423.393-1.021.803-1.554.816-.739.017-1.296-.538-1.312-1.365-.054-2.877.156-5.723 1.162-8.456.653-1.771 1.771-2.934 3.726-3.363 3.182-.697 6.328-1.561 9.481-2.381.95-.246 1.633.004 2.286.746z" filter="url(#a)" opacity=".502"/>
</svg>
