<svg xmlns="http://www.w3.org/2000/svg" width="80" height="80">
    <path fill-rule="evenodd" d="M79.997 70.524c.08 4.03-3.891 9.536-9.461 9.487-20.079-.179-40.161-.118-60.242-.039C5.397 79.993-.018 74.622.015 69.67c.129-19.452.12-38.906-.007-58.357C-.019 7.064 4.188 1.207 9.161.093c.738-.167 1.557-.207 2.124.495.528.653.479 1.341.042 2.035-.082.131-.093.312-.115.475-.018.13-.003.265-.003.398v14.131c1.08 0 2.039-.013 2.998.004 1.109.021 1.801.644 1.795 1.581-.005.933-.714 1.552-1.813 1.565-.958.011-1.916.002-2.985.002v1.258c.001 12.823.003 25.648 0 38.471 0 1.618-.378 2.021-2.017 2.212-.165.019-.333.029-.494.067-3.01.681-5.83 4.808-5.458 7.982.379 3.243 3.575 6.021 6.939 6.021 20.347.002 40.694.004 61.042.004 3.108.001 5.579-2.553 5.584-5.821.012-9.326.005-18.653.005-27.979 0-5.396.025-10.792-.028-16.188a8.358 8.358 0 0 0-.558-2.906c-.792-2.034-2.405-3.023-4.569-3.122-.399-.019-.8.015-1.199-.003-.996-.045-1.666-.726-1.634-1.639.03-.874.678-1.434 1.657-1.509 6.054-.457 9.485 4.898 9.481 9.031-.006 6.929 0 13.858 0 20.784-.001 7.695-.111 15.391.042 23.082zm-76.786-7.89c1.321-.88 2.513-1.847 3.855-2.504.806-.395 1.014-.778 1.013-1.608-.023-16.846-.017-33.693-.017-50.538V3.632c-2.828 1.885-4.837 4-4.841 7.355-.021 16.879-.01 33.759-.01 50.638v1.009zm61.116-12.578a30.132 30.132 0 0 1-2.055-1.229c-.464-.312-.879-.246-1.096.188a12.609 12.609 0 0 0-.831 2.217c-.044.157.258.501.476.628.718.419 1.48.759 2.205 1.163.404.225.813.473 1.145.789 1.301 1.237 1.155 2.776-.506 3.441-3.481 1.394-8.28 1.161-10.671-3.075-.39-.69-.602-1.574-.605-2.371-.008-2.102-.655-3.813-2.366-5.13-1.025-.789-1.935-1.731-2.881-2.62-.83-.783-.938-1.664-.324-2.372.628-.726 1.605-.715 2.465.063a264.638 264.638 0 0 1 3.895 3.588c1.777 1.678 2.228 3.866 2.332 6.183.096 2.139 1.631 3.409 3.948 3.176-.14-.126-.223-.218-.322-.289-1.26-.916-2.352-1.933-1.945-3.707.52-2.272 1.299-4.4 3.802-5.191.567-.18 1.239-.027 1.964-.027-.631-.771-1.296-1.286-2.335-1.179-2.652.272-4.9-.588-6.8-2.448-.975-.954-2.019-1.839-3.014-2.773-.831-.781-.932-1.667-.307-2.375.612-.693 1.563-.702 2.39.028 1.149 1.013 2.31 2.018 3.394 3.099 1.072 1.068 2.318 1.562 3.796 1.352 1.923-.273 3.496.421 4.774 1.748 1.011 1.049 1.865 2.25 2.783 3.387.102.129.171.287.24.436.542 1.165.456 2.478-.197 3.091-.815.764-2.184.861-3.354.209zm1.214-28.901a29006.303 29006.303 0 0 1-30.383 30.378c-.402.401-.916.689-1.527 1.14-.551-.436-1.166-.7-1.375-1.153-.195-.422-.036-1.068.119-1.569.098-.313.469-.545.728-.804 9.914-9.916 19.831-19.828 29.736-29.753.455-.455 1.172-1.048 1.13-1.517-.089-.986-.458-2.022-.982-2.871-.688-1.113-1.737-1.845-3.125-2.103-.746-.138-1.21-.065-1.751.48-8.463 8.54-16.947 17.059-25.427 25.583-1.785 1.794-3.539 3.622-5.386 5.351-.384.36-1.158.556-1.671.445-.419-.089-.903-.705-1.011-1.168-.099-.423.182-1.012.455-1.421.326-.49.821-.868 1.244-1.292 10.126-10.175 20.261-20.34 30.361-30.541.921-.93 1.805-1.28 3.006-.73.208.098.442.173.669.19 2.545.178 4.132 1.858 5.531 3.691.534.7.709 1.698.957 2.587.937 3.34 1.075 2.702-1.298 5.077zm-22.332-.389c-.53.032-1.063.005-1.595.005v-.004c-.565 0-1.132.034-1.694-.008-.891-.067-1.487-.73-1.478-1.573.009-.836.624-1.506 1.513-1.541a43.989 43.989 0 0 1 3.289-.001c.894.033 1.516.693 1.53 1.523.015.873-.621 1.542-1.565 1.599zM28.476 47.941c-.201-.47-.073-1.126.051-1.67.064-.278.427-.491.662-.726a285687.69 285687.69 0 0 1 30.148-30.154c.235-.235.456-.496.728-.679.662-.443 1.341-.402 1.923.134.612.561.737 1.259.289 1.981-.189.307-.469.559-.727.817C51.502 27.697 41.455 37.75 31.396 47.792c-.428.428-.963.747-1.582 1.217-.537-.405-1.155-.642-1.338-1.068zm2.601 7.209c-2.829.725-5.662 1.431-8.495 2.14-.224.056-.458.071-.563.086-1.822.008-2.775-1.309-2.313-3.095.597-2.312 1.24-4.614 1.863-6.92.155-.578.281-1.164.47-1.73.292-.875 1.026-1.282 1.858-1.077.876.215 1.37.966 1.146 1.897-.404 1.677-.872 3.34-1.302 5.012-.235.915.869 2.048 1.786 1.828 1.581-.381 3.157-.783 4.737-1.168 1.081-.265 1.918.152 2.132 1.047.23.961-.245 1.704-1.319 1.98zm8.434-29.244c-.669.663-1.57.615-2.388-.154a352.88 352.88 0 0 1-3.246-3.107c-1.805-1.75-2.469-3.983-2.618-6.401-.157-2.554-1.091-3.605-3.645-3.948-.408-.056-.823-.054-1.525-.095.745.594 1.267.981 1.757 1.405 1.124.975 1.457 2.184.971 3.595-.28.814-.527 1.653-.919 2.415-1.259 2.453-2.81 3.134-5.593 2.5.877 1.106 1.804 1.882 3.305 1.724 3.096-.325 5.782.559 7.951 2.866.431.46.937.849 1.411 1.266 1.1.969 1.308 1.841.625 2.641-.702.821-1.626.718-2.761-.306-.668-.601-1.38-1.16-2-1.807-1.229-1.279-2.72-1.662-4.443-1.573-3.843.198-7.913-2.832-8.914-6.582-.256-.96-.417-1.959.5-2.662.964-.74 2.059-.724 3.106-.174.852.447 1.67.967 2.469 1.504.496.335.906.288 1.155-.205a19.77 19.77 0 0 0 1.078-2.548c.062-.185-.215-.607-.442-.747-.791-.486-1.634-.887-2.449-1.337-1.099-.606-2.279-1.263-2.055-2.742.211-1.399 1.444-1.813 2.654-2.041 2.844-.538 5.645-.645 8.103 1.264 1.73 1.343 2.877 2.987 2.814 5.329-.052 1.955.668 3.625 2.194 4.932.934.799 1.802 1.678 2.686 2.536.837.812.913 1.763.219 2.452z" opacity=".2"/>
</svg>
