<svg xmlns="http://www.w3.org/2000/svg" width="76" height="80">
    <defs>
        <filter id="a">
            <feFlood flood-color="#FFF" flood-opacity="1" result="floodOut"/>
            <feComposite in="floodOut" in2="SourceGraphic" operator="atop" result="compOut"/>
            <feBlend in="compOut" in2="SourceGraphic"/>
        </filter>
    </defs>
    <path fill-rule="evenodd" d="M75.48 33.904c-.557.622-1.492.68-2.153.081-.864-.782-1.672-1.627-2.497-2.451-8.837-8.835-17.673-17.674-26.511-26.509-.207-.206-.432-.398-.934-.856-.23.371-.386.769-.662 1.044-9.347 9.364-18.705 18.717-28.063 28.07-.236.236-.462.484-.718.695-.687.567-1.596.537-2.166-.052-.584-.605-.598-1.477-.022-2.172.17-.205.37-.384.559-.572 9.875-9.873 19.749-19.748 29.625-29.619 1.4-1.399 2.014-1.379 3.389.004 4.155 4.183 8.325 8.351 12.49 12.526l.243-.089c0-1.554-.005-3.109.002-4.664.006-1.394.536-1.921 1.937-1.926 1.834-.006 3.667-.003 5.5-.002 1.6.003 2.106.493 2.108 2.066.006 4.466.019 8.93-.009 13.396-.005.686.171 1.174.669 1.659 2.242 2.188 4.445 4.415 6.661 6.629.212.211.444.412.621.651.522.707.525 1.428-.069 2.091zm-11.086-23.28h-3.182c0 2.193-.006 4.319.011 6.445.002.209.096.467.237.619.895.97 1.815 1.918 2.727 2.871l.207-.182v-9.753zM7.703 58.886c.717-.438 1.417-.368 2 .235.55.57.696 1.316.166 1.906-1.202 1.333-2.453 2.634-3.785 3.835-.69.623-1.495.352-2.136-.299-.982-.997-1.972-1.987-2.953-2.986-.865-.878-.963-1.742-.288-2.458.665-.704 1.531-.65 2.462.154.095.081.197.152.396.307V6.586c-.364.283-.621.532-.923.708-.696.402-1.364.29-1.912-.275C.181 6.451.015 5.71.546 5.118 1.744 3.779 2.988 2.47 4.322 1.271c.613-.55 1.443-.419 2.074.214a455.685 455.685 0 0 1 3.09 3.13c.81.831.886 1.685.235 2.389-.654.706-1.487.685-2.39-.06-.122-.1-.243-.204-.478-.402v53.041c.354-.295.579-.534.85-.697zm32.692-19.227c.013 1.499.003 2.999.003 4.498s.006 3-.001 4.499c-.008 1.339-.552 1.902-1.863 1.906-3 .008-6.001.008-9.001-.001-1.32-.003-1.877-.564-1.881-1.888-.009-3.001-.009-5.999 0-9 .003-1.275.558-1.847 1.809-1.852 3.034-.01 6.067-.01 9.101.001 1.257.004 1.822.576 1.833 1.837zm-3.193 1.386h-6.321v6.292h6.321v-6.292zm-6.153-19.193c3.131-.077 6.265-.042 9.398-.043 5.2 0 10.399.001 15.599.003 1.245 0 1.979.612 1.956 1.621-.022.964-.724 1.525-1.942 1.526-4.133.004-8.267.001-12.4.001-4.166 0-8.333.027-12.498-.033-.555-.008-1.264-.312-1.603-.726-.271-.329-.298-1.183-.051-1.531.307-.432 1.003-.805 1.541-.818zm35.016 11.556c0-1.294.564-1.998 1.574-1.989 1.01.01 1.572.726 1.572 2.005l-.002 29.306c-.001 1.781-.457 2.237-2.246 2.237-3.301.003-6.602.006-9.903.006-1.718-.001-2.203-.49-2.202-2.183.002-6.935.001-13.87.001-20.804v-.954h-6.457v3.961c0 5.969.001 11.936-.002 17.904-.001 1.564-.516 2.07-2.111 2.07-8.703.001-17.406.002-26.109 0-1.657 0-2.134-.486-2.134-2.141l-.001-29.305c0-.136-.003-.267.002-.401.037-1.039.649-1.704 1.565-1.7.911.003 1.572.678 1.578 1.698.016 2.766.003 5.534.004 8.299 0 6.469.002 12.937.003 19.404v.94h24.054v-1.092c.002-6.901.002-13.803.006-20.705 0-1.664.477-2.144 2.13-2.145 2.767-.003 5.535.001 8.303-.002 1.861-.002 2.321.439 2.32 2.264 0 6.901-.003 13.803-.004 20.702v.965h8.053v-1.033c.001-9.103.002-18.205.006-27.307zM21.47 70.509c.821-.799 1.699-.902 2.391-.295.698.613.692 1.445-.015 2.397-.056.075-.103.159-.213.33h40.142c-.187-.265-.372-.48-.507-.725-.403-.729-.335-1.425.292-1.991.592-.532 1.329-.624 1.915-.1a57.056 57.056 0 0 1 3.571 3.489c.621.661.478 1.519-.229 2.229a263.933 263.933 0 0 1-3.059 3.019c-.84.816-1.68.895-2.388.253-.711-.645-.663-1.538.132-2.458.083-.095.158-.2.354-.448H23.595c.265.337.469.573.648.828.493.702.416 1.384-.145 2.001-.562.618-1.428.726-2.066.144a74.403 74.403 0 0 1-3.711-3.635c-.542-.568-.384-1.543.232-2.162.964-.966 1.939-1.922 2.917-2.876z" filter="url(#a)" opacity=".502"/>
</svg>
