<svg xmlns="http://www.w3.org/2000/svg" width="72" height="72">
    <path fill-rule="evenodd" d="M70.49 53.425a3880.34 3880.34 0 0 0-16.985 16.962c-.532.534-1.066.796-1.832.795-16.338-.016-32.675-.009-49.013-.008-1.276 0-1.821-.528-1.821-1.813C.835 52.994.83 36.626.871 20.258c.002-.578.352-1.286.769-1.705A2173.721 2173.721 0 0 1 18.674 1.499c.392-.389 1.092-.657 1.65-.66C28.492.796 36.661.809 44.83.809V.805l24.207.001c1.761 0 2.175.424 2.175 2.161-.002 16.202-.005 32.402.01 48.604 0 .746-.181 1.308-.732 1.854zM4.041 65.75c1.795.15 2.105.462 2.201 2.207h44.157V53.006c-.766.189-1.515.506-2.275.539-1.797.079-3.599.03-5.399.018-1.183-.008-1.892-.629-1.867-1.603.024-.94.703-1.525 1.834-1.536a275.87 275.87 0 0 1 4.899-.005c.997.007 2.063-.215 2.792.993V21.633H4.041V65.75zM21.645 4.038c-.172 1.134.337 2.462-1.105 3.015-.889.341-1.52-.128-1.865-.59L6.757 18.378h11.689c0-2.068-.014-4.03.011-5.992.006-.417.062-.886.258-1.239.361-.65 1.005-.883 1.719-.668.792.241 1.167.829 1.165 1.664-.007 2.057-.002 4.115-.002 6.23.325.017.55.04.775.04 9.403.002 18.805.01 28.207-.024.46-.003 1.028-.268 1.361-.597 4.387-4.335 8.742-8.704 13.101-13.067.193-.194.354-.419.579-.687H21.645zm46.358 2.29c-.275.24-.449.373-.603.527-4.433 4.431-8.873 8.852-13.275 13.311-.319.324-.499.927-.5 1.399-.028 9.599-.022 19.198-.019 28.797 0 .283.029.568.03.597.826-.186 1.608-.479 2.401-.514 1.763-.077 3.533-.031 5.299-.021 1.189.007 1.889.619 1.868 1.602-.021.933-.717 1.528-1.838 1.537-1.667.012-3.334.006-5 .007-.977 0-2.005.178-2.683-1.035V65.48l12.035-12.036c-.595-.426-1.067-1.03-.786-1.882.515-1.563 1.957-1.004 3.071-1.197V6.328zM35.83 53.568c-.999.015-1.998.003-2.997.003v-.007c-1.033 0-2.065.02-3.097-.004-1.038-.025-1.692-.66-1.683-1.582.009-.91.676-1.54 1.714-1.551a317.52 317.52 0 0 1 6.095-.001c1.04.009 1.717.636 1.738 1.533.021.932-.692 1.593-1.77 1.609zm-12.601-.004c-.067.004-.135.011-.2 0-1.644-.26-2.927.253-3.985 1.588-.686.866-1.694.847-2.362.193-.663-.65-.613-1.594.129-2.388.091-.099.176-.206.283-.282 1.137-.808 1.573-1.898 1.359-3.271a2.802 2.802 0 0 1 .009-.797c.109-.817.778-1.393 1.574-1.383a1.541 1.541 0 0 1 1.538 1.416c.048.554.009 1.115.009 1.779.675 0 1.175-.026 1.672.006.925.059 1.567.761 1.535 1.633-.03.836-.657 1.44-1.561 1.506zm-3.197-17.542c.921.008 1.533.661 1.554 1.709.021 1.033.005 2.065.005 3.098h.006c0 .966.007 1.931-.002 2.896-.01 1.105-.614 1.82-1.538 1.842-.937.022-1.598-.674-1.608-1.767-.018-2.03-.017-4.061.004-6.093.011-1.026.668-1.694 1.579-1.685zm1.554-4.919c-.023.975-.639 1.627-1.507 1.656-.909.03-1.619-.646-1.63-1.641-.022-2.097-.022-4.195.007-6.292.013-.96.68-1.603 1.555-1.606.874-.004 1.543.642 1.572 1.591.032 1.065.007 2.13.008 3.196 0 1.032.019 2.065-.005 3.096zM9.902 64.278c-.216.21-.592.255-1.093.456-.38-.302-.992-.556-1.16-.985-.187-.476-.193-1.313.108-1.644 1.473-1.628 3.049-3.167 4.645-4.676.587-.556 1.559-.41 2.075.184.549.632.653 1.398.084 2-1.507 1.598-3.083 3.134-4.659 4.665z" opacity=".2"/>
</svg>
