<svg xmlns="http://www.w3.org/2000/svg" width="74" height="91">
    <path fill-rule="evenodd" d="M70.752 44.63c-1.433 2.122-3.236 3.899-5.304 5.393-.597.432-.713.756-.368 1.449 1.279 2.577 2.108 5.283 1.507 8.193-.218 1.055-.59 2.135-1.137 3.059-2.193 3.708-7.939 7.347-14.204 4.493-2.665-1.213-4.839-3.045-6.707-5.263-.755-.894-.731-1.886-.011-2.483.777-.645 1.677-.457 2.492.526 1.599 1.926 3.457 3.522 5.815 4.441 3.187 1.244 6.042.547 8.519-1.685 2.357-2.126 2.678-4.832 1.762-7.703-.42-1.316-1.092-2.565-1.757-3.787-.677-1.243-.518-1.839.597-2.692 1.687-1.288 3.451-2.541 4.888-4.082 6.067-6.507 3.056-14.015-1.234-17.719-4.184-3.611-9.065-4.368-14.345-3.103-.323.077-.636.203-.962.266-1.315.25-2.224-.664-1.953-1.983.575-2.795.818-5.596.335-8.434-.878-5.17-3.99-8.562-9.121-9.615-4.688-.963-9.306-.469-13.708 1.395-4.828 2.043-7.391 5.929-8.016 10.993-.294 2.377-.025 4.838.111 7.253.072 1.295-.484 1.988-1.795 2.041-1.785.072-3.622.027-5.335.446-2.764.676-4.621 3.086-4.417 5.566.085 1.036.521 2.16 1.128 3.007.699.975 1.725 1.737 2.685 2.496.623.493 1.256.889 1.172 1.809-.079.875-.747 1.133-1.401 1.512-1.115.647-2.262 1.314-3.196 2.186-2.933 2.735-3.55 6.498-1.895 10.679 1.448 3.659 4.476 5.54 8.474 5.011 1.861-.245 3.685-.836 5.498-1.366 1.153-.337 1.973-.149 2.35.761.371.898-.017 1.817-1.181 2.149-2.294.653-4.609 1.456-6.959 1.644-5.883.467-9.867-2.505-11.508-8.193-1.696-5.874-.047-10.806 4.836-14.469.104-.079.197-.172.5-.438-.33-.233-.659-.403-.911-.65-4.755-4.689-3.444-11.719 2.752-14.261 1.751-.717 3.702-.947 5.703-1.435 0-.095.014-.415-.002-.733-.141-2.881.025-5.733.858-8.511 1.464-4.887 4.495-8.443 9.215-10.403C29.337.389 34.376-.221 39.508.776c6.903 1.341 11.499 6.359 12.25 13.336.212 1.97.033 3.981.033 6.103 2.063 0 3.974-.189 5.835.034 7.151.857 13.861 5.856 15.46 13.469.837 3.987-.093 7.595-2.334 10.912zM31.281 34.154c1.204-1.709 2.264-3.518 3.44-5.247.337-.494.803-1.072 1.321-1.218.451-.127 1.167.174 1.571.516.617.523.384 1.266.113 1.944-.725 1.815-1.576 3.594-2.135 5.459-2.05 6.85-2.48 13.868-1.847 20.961.135 1.522.409 3.033.628 4.546.184 1.274-.255 2.071-1.243 2.231-.968.156-1.658-.467-1.884-1.737-1.294-7.261-1.116-14.516.105-21.766.038-.226.058-.454.117-.923-1.247 1.137-2.318 2.121-3.396 3.099-.623.564-1.298.98-2.158.506-.835-.461-.89-1.225-.815-2.076.172-1.957.273-3.92.452-5.876.109-1.195.823-1.844 1.759-1.715.957.132 1.453.91 1.358 2.081-.055.68-.069 1.361.126 2.144.836-.972 1.753-1.885 2.488-2.929zm-14.48 12.735c-.125-.11-.264-.205-.385-.318-.706-.657-.818-1.558-.283-2.229.56-.702 1.568-.845 2.305-.166 1.542 1.42 3.06 2.873 4.498 4.397 4.523 4.798 6.558 10.756 7.593 17.081.616 3.768.963 7.591 1.206 11.404.222 3.471-.433 6.834-2.13 9.934-.076.139-.114.299-.217.577h10.818c-.311-.513-.553-.923-.808-1.328-3.095-4.913-4.619-10.199-3.998-16.053.483-4.55 1.779-8.863 3.546-13.048.835-1.982 1.784-3.915 2.558-6.014-.314.249-.622.504-.942.746-1.127.852-2.392.438-2.678-.925a139.844 139.844 0 0 1-1.031-5.495c-.214-1.267.283-2.052 1.288-2.194.922-.128 1.599.505 1.829 1.701.164.848.336 1.694.508 2.541.004.022.047.037.179.13.295-.233.628-.485.945-.752 1.911-1.611 3.806-3.242 5.731-4.834 1.148-.952 2.634-.553 2.76.772.05.523-.25 1.161-.569 1.624-3.4 4.924-6.275 10.128-8.427 15.716-1.455 3.779-2.507 7.664-2.666 11.73-.241 6.121 2.099 11.294 6.018 15.847.528.614.981 1.203.601 2.047-.371.823-1.083.978-1.907.976-5.367-.013-10.733-.011-16.1-.002-.767.002-1.488-.077-1.912-.811-.454-.784-.111-1.455.346-2.121 2.196-3.202 3.231-6.731 3.176-10.63a59.838 59.838 0 0 0-3.157-18.427c-1.639-4.846-4.926-8.554-8.695-11.876z" opacity=".502"/>
</svg>
