<svg xmlns="http://www.w3.org/2000/svg" width="60" height="38">
    <path fill-rule="evenodd" d="M59.95 25.566H40.665c0 2.146.713 4.176 1.82 5.25 1.106 1.087 2.692 1.631 4.744 1.631 1.485 0 2.766-.382 3.828-1.132 1.063-.75 1.718-1.558 1.965-2.399h6.462c-1.033 3.253-2.619 5.575-4.759 6.972-2.125 1.396-4.716 2.103-7.743 2.103-2.11 0-4.002-.339-5.705-1.029-1.703-.692-3.115-1.648-4.309-2.898-1.164-1.263-2.066-2.749-2.707-4.5-.64-1.735-.96-3.661-.96-5.748 0-2.015.335-3.912.989-5.648.67-1.749 1.587-3.264 2.795-4.529 1.208-1.279 2.649-2.278 4.337-3.015 1.674-.735 3.522-1.101 5.574-1.101 2.256 0 4.236.441 5.939 1.337a11.845 11.845 0 0 1 4.162 3.574c1.092 1.499 1.863 3.206 2.344 5.115.48 1.914.655 3.915.509 6.017zm-9.038-8.928c-.873-.969-2.344-1.497-4.148-1.497-1.179 0-2.14.204-2.926.601-.757.399-1.383.896-1.863 1.485-.48.603-.8 1.235-.989 1.898-.19.661-.306 1.249-.335 1.778H52.6c-.16-1.881-.801-3.278-1.688-4.265zM39.166 2.509h14.962v3.676H39.166V2.509zm-12.284 32.23c-1.222.869-2.62 1.516-4.192 1.943a18.857 18.857 0 0 1-4.817.631H0V.009h17.393c1.761 0 3.362.146 4.817.47 1.441.31 2.678.823 3.726 1.544 1.034.706 1.834 1.661 2.402 2.837.567 1.178.844 2.649.844 4.383 0 1.883-.422 3.441-1.266 4.706-.845 1.25-2.096 2.279-3.77 3.071 2.27.663 3.959 1.825 5.065 3.473 1.121 1.661 1.674 3.646 1.674 5.983 0 1.898-.364 3.515-1.077 4.882-.728 1.385-1.703 2.515-2.926 3.381zM20.857 8.478c-.321-.558-.728-.986-1.252-1.293-.524-.324-1.106-.529-1.79-.662a10.822 10.822 0 0 0-2.096-.192H8.121v8.721h8.224v.014c1.441 0 2.634-.338 3.58-1.044.932-.691 1.383-1.823 1.383-3.398 0-.865-.146-1.586-.451-2.146zm.349 13.425c-1.063-.824-2.489-1.221-4.235-1.221H8.136v10.266h8.66c.8 0 1.557-.075 2.285-.236.728-.162 1.368-.411 1.921-.793.539-.369.99-.854 1.325-1.487.334-.632.48-1.44.48-2.41 0-1.926-.539-3.279-1.601-4.119z"/>
</svg>
