<svg xmlns="http://www.w3.org/2000/svg" width="73" height="72">
    <path fill-rule="evenodd" d="M71.764 68.724c-2.986 1.242-6.111 1.625-9.301 1.389-4.272-.315-8.25-1.506-11.566-4.365-2.952-2.547-4.187-5.78-3.596-9.644a3.417 3.417 0 0 1 .852-1.725c1.766-1.861 3.626-3.631 5.416-5.469.687-.705 1.418-.905 2.341-.588 1.727.596 3.515 1.047 5.185 1.769 3.359 1.453 5.257 3.345 4.648 8.492-.567 2.422 1.07 4.312 3.559 5.728.809.459 1.642.883 2.488 1.27.725.33 1.25.769 1.223 1.633-.025.82-.557 1.222-1.249 1.51zm-4.867-2.291c-3.468-2.222-4.818-5.355-4.097-9.411.278-1.564-.349-2.817-1.75-3.48-1.614-.762-3.313-1.357-5.005-1.934-.298-.101-.841.136-1.108.388-1.354 1.282-2.692 2.587-3.951 3.96-.389.424-.694 1.084-.721 1.65-.124 2.598.885 4.776 2.895 6.39 4.148 3.331 8.936 3.707 13.932 2.959.052-.108.104-.214.155-.324-.117-.066-.237-.126-.35-.198zm-15.656-30.62c-.731.723-1.693.737-2.312.104-.695-.709-.617-1.566.265-2.442 5.865-5.826 11.724-11.657 17.621-17.451.686-.675 1.002-1.322.854-2.273-.179-1.15-.226-2.321-.4-3.472-.054-.36-.269-.749-.523-1.019a151.527 151.527 0 0 0-4.188-4.295c-.307-.302-.776-.522-1.204-.598-1.375-.245-2.769-.382-4.149-.606-.625-.105-1.048.082-1.495.525-5.715 5.694-11.451 11.366-17.182 17.043-.213.211-.416.438-.654.616-.697.528-1.508.471-2.079-.121-.537-.555-.564-1.458-.047-2.093.189-.232.414-.433.627-.644 5.941-5.893 11.89-11.776 17.813-17.684.748-.747 1.487-1.051 2.569-.852 1.962.362 3.96.529 5.929.858.52.086 1.093.361 1.466.729a243.13 243.13 0 0 1 5.52 5.651c.281.296.54.719.588 1.11.271 2.215.474 4.436.724 6.888-.149.256-.316.748-.648 1.078a7415.928 7415.928 0 0 1-19.095 18.948zm-8.601-7.789c-.2-.432-.067-1.07.059-1.582.069-.284.42-.5.657-.734C49.107 20.003 54.859 14.3 60.613 8.6c.236-.234.467-.488.746-.661.632-.388 1.292-.364 1.849.132.588.522.704 1.198.333 1.902-.136.259-.363.475-.575.685a9664.525 9664.525 0 0 1-17.625 17.447c-.362.358-.844.592-1.395.97-.501-.38-1.107-.62-1.306-1.051zm11.362 15.863c.536.673.958 1.434.33 2.152-.347.397-1.078.656-1.618.628-.421-.022-.892-.523-1.208-.919-6.067-7.589-12.55-14.793-19.743-21.336-2.608-2.371-5.32-4.627-7.918-6.879l-7.392 7.421c.602.754 1.286 1.641 1.999 2.503 7.647 9.249 16.487 17.227 26.067 24.413.293.219.594.431.878.662.816.666.972 1.539.418 2.275-.529.704-1.467.802-2.313.196-.814-.581-1.602-1.197-2.395-1.805-11.269-8.652-21.478-18.362-29.781-29.957-4.045-5.65-7.57-11.597-9.955-18.162-.136-.376-.247-.76-.376-1.136-.261-.764-.363-1.516.323-2.119.638-.561 1.351-.451 2.06-.136 1.762.788 3.561 1.503 5.277 2.379 8.575 4.378 16.228 10.081 23.416 16.438 8.039 7.11 15.246 15.001 21.931 23.382zM5.178 5.838l-.299.267c1.882 3.57 3.764 7.14 5.737 10.886l4.888-5.372C12.346 9.572 8.881 7.488 5.178 5.838zm13.328 7.826c-1.902 1.851-3.747 3.628-5.558 5.438-.168.168-.271.628-.163.807.475.788 1.039 1.522 1.562 2.265l6.694-6.68-2.535-1.83zM9.852 47.023c.845.354 1.098 1.257.648 2.384-1.665 4.169-3.317 8.344-5.023 12.498-.29.706-.202 1.134.362 1.622a24.213 24.213 0 0 1 2.123 2.115c.424.472.796.521 1.376.278 4.049-1.698 8.114-3.357 12.173-5.03.216-.088.426-.192.647-.261.989-.312 1.816.047 2.131.914.288.792-.096 1.597-1.032 1.987-3.254 1.357-6.52 2.687-9.78 4.028-2.829 1.167-5.654 2.343-8.486 3.502-.427.174-.88.284-1.1.354-1.986.103-4.677-2.378-3.645-4.854 2.532-6.077 4.924-12.213 7.377-18.323.472-1.176 1.287-1.61 2.229-1.214zm-6.855 21.23l.218.153c.694-.281 1.389-.565 2.13-.867l-1.474-1.584-.874 2.298zm10.881-22.132c-.783.785-1.726.857-2.381.22-.668-.649-.633-1.572.148-2.378a710.36 710.36 0 0 1 6.716-6.845c.327-.328.807-.504 1.386-.852.482.444 1.12.759 1.24 1.214.134.508-.027 1.282-.364 1.688-.954 1.149-2.063 2.17-3.111 3.241-1.21 1.238-2.412 2.484-3.634 3.712zm12.717-2.256c.448.099.769.772 1.196 1.248-.342.569-.522 1.05-.851 1.384a613.274 613.274 0 0 1-6.342 6.359c-.828.82-1.675.876-2.374.206-.67-.643-.63-1.587.15-2.375 2.131-2.149 4.246-4.317 6.448-6.393.398-.374 1.228-.547 1.773-.429zm5.738 6.466c.518-.53 1.16-.791 1.795-.413.456.273.749.815 1.15 1.277-.318.564-.467 1.024-.769 1.338a773.975 773.975 0 0 1-7.052 7.215c-.781.79-1.724.834-2.376.167-.637-.65-.618-1.535.125-2.302 2.365-2.438 4.753-4.852 7.127-7.282z" opacity=".502"/>
</svg>
