<svg xmlns="http://www.w3.org/2000/svg" width="49" height="72">
    <defs>
        <filter id="a">
            <feFlood flood-color="#FFF" flood-opacity="1" result="floodOut"/>
            <feComposite in="floodOut" in2="SourceGraphic" operator="atop" result="compOut"/>
            <feBlend in="compOut" in2="SourceGraphic"/>
        </filter>
    </defs>
    <path fill-rule="evenodd" d="M48.051 35.968c0 7.599-.061 15.198.031 22.796.034 2.825-1.086 4.939-3.173 6.667-2.488 2.058-5.396 3.289-8.47 4.118-9.117 2.453-18.174 2.332-27.119-.837-2.433-.861-4.697-2.053-6.612-3.828-1.748-1.617-2.642-3.54-2.634-6 .05-15.332.05-30.662 0-45.991-.008-2.541.946-4.512 2.777-6.143 2.335-2.082 5.114-3.372 8.073-4.238 9.623-2.816 19.185-2.691 28.627.833 2.196.822 4.225 1.973 5.948 3.597 1.674 1.581 2.591 3.447 2.574 5.831-.057 7.732-.021 15.464-.022 23.195zM3.254 54.627c.001.31.201.675.416.92.523.594.648 1.206.311 1.926-1.209 2.582-.882 4.298 1.456 5.958 1.421 1.008 3.016 1.841 4.64 2.48 3.627 1.427 7.463 1.937 11.336 2.131 5.326.271 10.587-.148 15.709-1.724 2.242-.69 4.363-1.638 6.131-3.243 1.588-1.44 2.317-3.765.963-5.548-.447-.589-.391-1.34.164-1.825.505-.442.542-.919.542-1.495-.008-11.733-.006-23.465-.006-35.197v-1.191c-6.369 4.39-13.429 5.673-20.798 5.67-7.374-.003-14.449-1.254-20.82-5.642-.028.273-.057.429-.057.583-.003 12.067-.007 24.131.013 36.197zm39.12-46.539a18.752 18.752 0 0 0-4.797-2.387C29.69 3.15 21.67 3.112 13.615 4.819c-2.913.617-5.725 1.564-8.108 3.442-3.05 2.404-3.102 5.32.04 7.572 1.568 1.125 3.391 1.988 5.216 2.643 4.275 1.534 8.759 1.913 13.279 2.009 1.993-.129 3.99-.22 5.979-.402 1.189-.111 2.374-.329 3.546-.567 3.149-.643 6.217-1.54 8.848-3.477 3.358-2.471 3.382-5.589-.041-7.951zM7.062 51.446c2.297-.941 4.655-1.732 6.99-2.58.92.298 1.49.668 1.636 1.521.151.881-.277 1.518-1.202 1.796-1.463.441-2.936.849-4.395 1.305-.569.177-1.102.468-1.667.664-.795.274-1.593-.062-1.917-.799-.344-.783-.183-1.604.555-1.907zm13.592-3.184a95.297 95.297 0 0 1 6.867.016c.964.038 1.422.734 1.361 1.63-.058.858-.651 1.385-1.616 1.397-1.096.014-2.194.003-3.291.003v-.007c-.997 0-1.994-.001-2.992.001-1.047.001-1.676-.486-1.758-1.358-.084-.905.425-1.648 1.429-1.682zm13.578.933c2.168.631 4.327 1.304 6.448 2.074.497.179.833.807 1.047 1.026.031 1.485-.973 2.235-2.037 1.898-2.058-.651-4.114-1.312-6.168-1.975-.843-.271-1.312-1.073-1.106-1.864.216-.833.981-1.403 1.816-1.159z" filter="url(#a)" opacity=".502"/>
</svg>
