<svg xmlns="http://www.w3.org/2000/svg" width="76" height="80">
    <path fill-rule="evenodd" d="M75.48 33.905c-.557.622-1.492.678-2.153.081-.864-.783-1.672-1.627-2.497-2.451-8.837-8.837-17.673-17.675-26.511-26.511-.207-.206-.432-.397-.934-.855-.23.371-.386.767-.662 1.045-9.347 9.363-18.706 18.716-28.063 28.07-.236.234-.462.483-.718.695-.687.566-1.596.537-2.166-.053-.584-.605-.598-1.476-.021-2.172.169-.204.369-.384.558-.572 9.875-9.874 19.75-19.748 29.625-29.619 1.4-1.4 2.014-1.38 3.389.004 4.155 4.182 8.325 8.352 12.49 12.526l.243-.089c0-1.553-.005-3.109.002-4.665.006-1.393.536-1.919 1.938-1.925 1.833-.006 3.666-.003 5.499-.001 1.6.003 2.106.491 2.108 2.065.006 4.464.019 8.931-.01 13.396-.004.687.172 1.174.67 1.66 2.242 2.188 4.445 4.415 6.661 6.629.212.211.444.409.621.65.522.707.525 1.429-.069 2.092zM64.394 10.624h-3.182c0 2.193-.006 4.32.011 6.445.002.21.096.466.237.618.895.971 1.815 1.919 2.727 2.872l.207-.182v-9.753zM7.703 58.885c.717-.437 1.417-.366 2 .236.55.57.696 1.315.166 1.904-1.202 1.335-2.453 2.635-3.785 3.838-.69.623-1.496.352-2.136-.3-.982-.996-1.972-1.987-2.953-2.985C.13 60.7.032 59.834.707 59.119c.665-.704 1.531-.649 2.462.154.095.081.197.153.396.307V6.585c-.363.284-.621.534-.923.708-.696.404-1.364.292-1.912-.273C.181 6.452.015 5.71.546 5.118 1.744 3.78 2.987 2.47 4.322 1.272c.613-.55 1.443-.42 2.073.214a396.396 396.396 0 0 1 3.091 3.129c.81.83.886 1.686.235 2.388-.654.706-1.487.686-2.39-.058l-.478-.403v53.041c.354-.295.579-.533.85-.698zm32.692-19.228c.013 1.5.003 3 .003 4.5s.007 3-.002 4.499c-.007 1.338-.551 1.902-1.862 1.906-3.001.008-6.001.008-9.001 0-1.32-.004-1.877-.565-1.881-1.89-.009-3-.009-5.999 0-8.999.003-1.276.558-1.848 1.809-1.852 3.034-.01 6.067-.011 9.101 0 1.257.004 1.822.576 1.833 1.836zm-3.194 1.389h-6.32v6.291h6.32v-6.291zm-6.152-19.195c3.131-.075 6.265-.042 9.398-.042 5.2 0 10.399.001 15.599.003 1.245.001 1.979.613 1.956 1.621-.023.964-.724 1.524-1.942 1.525-4.133.005-8.266.001-12.399.001-4.167 0-8.334.027-12.499-.032-.555-.007-1.264-.313-1.603-.725-.271-.329-.299-1.184-.051-1.532.306-.432 1.003-.806 1.541-.819zm35.015 11.558c.001-1.295.565-1.998 1.575-1.989 1.01.01 1.573.726 1.572 2.004l-.002 29.305c0 1.783-.457 2.237-2.246 2.238-3.301.003-6.602.007-9.903.006-1.718 0-2.203-.49-2.202-2.183.002-6.935.001-13.869.001-20.804v-.953h-6.457v3.96c0 5.968.001 11.936-.002 17.903-.001 1.565-.516 2.07-2.111 2.071-8.703.002-17.406.002-26.109 0-1.657-.001-2.134-.485-2.134-2.142V33.52c0-.134-.004-.267.001-.4.037-1.039.649-1.703 1.565-1.7.911.003 1.572.677 1.578 1.697.016 2.767.004 5.534.004 8.301 0 6.468.002 12.936.003 19.403v.941h24.054v-1.093c.002-6.901.002-13.803.006-20.704 0-1.665.478-2.145 2.13-2.147 2.767-.004 5.535.002 8.303-.002 1.861-.002 2.321.441 2.32 2.265 0 6.901-.003 13.802-.004 20.703v.964h8.053v-1.034c.002-9.102.002-18.203.005-27.305zm-44.594 37.1c.821-.799 1.699-.902 2.391-.295.698.613.692 1.444-.015 2.395-.056.076-.103.16-.213.332h40.142c-.187-.265-.372-.481-.507-.724-.403-.731-.335-1.427.292-1.992.592-.532 1.329-.625 1.915-.1a57.072 57.072 0 0 1 3.571 3.49c.621.661.478 1.518-.229 2.227a248.755 248.755 0 0 1-3.059 3.019c-.84.816-1.68.897-2.388.254-.711-.644-.663-1.538.132-2.458.083-.097.158-.199.354-.45H23.595c.265.339.469.575.648.831.493.701.416 1.384-.145 2.001-.562.617-1.428.726-2.066.143a74.403 74.403 0 0 1-3.711-3.635c-.542-.568-.384-1.544.232-2.161.964-.968 1.939-1.924 2.917-2.877z" opacity=".2"/>
</svg>
