<svg xmlns="http://www.w3.org/2000/svg" width="53" height="69">
    <path fill="none" stroke="#000" stroke-width="2" d="M48.001 5.951v56.094c0 2.725-2.227 4.953-4.991 4.953H6.57c-2.746 0-4.991-2.209-4.991-4.953V17.038L17.739.998h25.252c2.783 0 5.01 2.209 5.01 4.953z" opacity=".2"/>
    <path fill="#B3B5B4" fill-rule="evenodd" d="M1.597 17.038L17.758.998v11.124c0 2.725-2.226 4.935-4.972 4.935H1.597v-.019z"/>
    <path fill="#FF5400" fill-rule="evenodd" d="M47.992 58.601H11.979L1.514 55.839V44.531l10.465-2.743h36.013c2.208 0 4.008 1.786 4.008 3.978v8.857c0 2.192-1.782 3.978-4.008 3.978zm-20.91-11.528a3.443 3.443 0 0 0-.947-1.233 2.845 2.845 0 0 0-.593-.387c-.204-.111-.446-.185-.705-.259a5.969 5.969 0 0 0-.891-.128 20.038 20.038 0 0 0-1.15-.037h-3.544v10.754h2.653v-3.37h1.188c.779 0 1.41-.056 1.892-.202.482-.13.909-.368 1.28-.718.353-.332.631-.737.835-1.235a4.064 4.064 0 0 0 .316-1.564c0-.59-.112-1.124-.334-1.621zm9.907-.037a4.602 4.602 0 0 0-1.317-1.232 4.283 4.283 0 0 0-1.429-.61 6.031 6.031 0 0 0-.872-.128 17.978 17.978 0 0 0-1.094-.037H28.64v10.754h4.212c.761 0 1.466-.129 2.096-.387a4.5 4.5 0 0 0 1.615-1.104 5.012 5.012 0 0 0 1.039-1.712 6.54 6.54 0 0 0 .371-2.229c0-1.289-.316-2.394-.984-3.315zm8.331-2.007h-5.919v10.736h2.654v-4.089h3.154v-2.413h-3.154v-1.821h3.265v-2.413zm-12.728 8.343h-1.206v-5.93h1.206c.835 0 1.484.257 1.948.773.464.515.687 1.252.687 2.228 0 .958-.223 1.676-.668 2.173-.445.497-1.095.756-1.967.756zm-9.574-3.371h-1.113V47.46h1.002c.649 0 1.132.092 1.41.294.278.203.427.517.427.976 0 .847-.575 1.271-1.726 1.271z"/>
</svg>
