<svg xmlns="http://www.w3.org/2000/svg" xmlns:xlink="http://www.w3.org/1999/xlink" preserveAspectRatio="xMidYMid" width="38.97" height="39" viewBox="0 0 38.97 39">
  <defs>
    <style>
      .cls-1 {
        fill: #000;
        fill-rule: evenodd;
      }
    </style>
  </defs>
  <path d="M35.746,36.007 C33.685,38.010 30.742,39.010 27.506,39.010 L11.466,39.010 C8.228,39.010 5.285,38.010 3.225,36.007 C1.017,34.007 -0.013,31.149 -0.013,27.861 L-0.013,11.137 C-0.013,4.561 4.549,-0.014 11.466,-0.014 L27.653,-0.014 C31.038,-0.014 33.833,1.129 35.893,3.131 C37.954,5.131 38.984,7.848 38.984,11.137 L38.984,27.861 C38.984,31.149 37.807,34.007 35.746,36.007 ZM35.000,10.000 C35.000,6.686 32.314,4.000 29.000,4.000 L10.000,4.000 C6.686,4.000 4.000,6.686 4.000,10.000 L4.000,29.000 C4.000,32.314 6.686,35.000 10.000,35.000 L29.000,35.000 C32.314,35.000 35.000,32.314 35.000,29.000 L35.000,10.000 ZM28.500,12.999 C27.119,12.999 26.000,11.881 26.000,10.500 C26.000,9.120 27.119,8.000 28.500,8.000 C29.881,8.000 31.000,9.120 31.000,10.500 C31.000,11.881 29.881,12.999 28.500,12.999 ZM19.500,28.000 C14.806,28.000 11.000,24.194 11.000,19.500 C11.000,14.806 14.806,11.000 19.500,11.000 C24.194,11.000 28.000,14.806 28.000,19.500 C28.000,24.194 24.194,28.000 19.500,28.000 ZM19.500,15.000 C17.015,15.000 15.000,17.015 15.000,19.500 C15.000,21.985 17.015,24.000 19.500,24.000 C21.985,24.000 24.000,21.985 24.000,19.500 C24.000,17.015 21.985,15.000 19.500,15.000 Z" class="cls-1"/>
</svg>
