<svg xmlns="http://www.w3.org/2000/svg" xmlns:xlink="http://www.w3.org/1999/xlink" preserveAspectRatio="xMidYMid" width="48" height="39" viewBox="0 0 48 39">
  <defs>
    <style>
      .cls-1 {
        fill: #000;
        fill-rule: evenodd;
      }
    </style>
  </defs>
  <path d="M47.993,4.611 C46.229,5.395 44.331,5.924 42.339,6.161 C44.373,4.943 45.932,3.015 46.667,0.713 C44.765,1.842 42.660,2.661 40.417,3.104 C38.622,1.191 36.063,-0.005 33.232,-0.005 C27.796,-0.005 23.389,4.403 23.389,9.841 C23.389,10.611 23.476,11.363 23.644,12.084 C15.463,11.673 8.209,7.754 3.354,1.797 C2.507,3.250 2.022,4.941 2.022,6.748 C2.022,10.163 3.759,13.177 6.400,14.942 C4.788,14.891 3.269,14.448 1.942,13.710 C1.941,13.751 1.941,13.793 1.941,13.835 C1.941,18.605 5.334,22.584 9.838,23.489 C9.012,23.713 8.142,23.834 7.244,23.834 C6.609,23.834 5.993,23.773 5.392,23.657 C6.645,27.568 10.280,30.416 14.587,30.495 C11.218,33.136 6.974,34.710 2.362,34.710 C1.568,34.710 0.784,34.663 0.013,34.572 C4.371,37.367 9.544,38.996 15.103,38.996 C33.209,38.996 43.110,23.993 43.110,10.982 C43.110,10.555 43.101,10.129 43.082,9.706 C45.005,8.321 46.674,6.586 47.993,4.611 Z" class="cls-1"/>
</svg>
