<svg xmlns="http://www.w3.org/2000/svg" width="74" height="74">
    <path fill-rule="evenodd" d="M73.786 68.844c-.007 2.721-2.246 4.949-4.979 4.95-21.201.005-42.402.006-63.603 0C2.388 73.793.219 71.55.218 68.643.213 51.037.216 33.433.217 15.828c0-3.534-.001-7.069.004-10.603C.226 2.102 2.139.209 5.265.21c5.2.004 10.401-.01 15.601.003 4.167.01 5.973 1.534 6.636 5.659.238-.425.433-.755.612-1.093 1.479-2.793 4.428-3.701 7.209-2.212 4.874 2.607 9.747 5.215 14.618 7.827 2.674 1.434 3.584 4.391 2.177 7.076-.797 1.523-1.609 3.038-2.553 4.818.519-.265.775-.378 1.013-.519 1.719-1.02 3.441-2.035 5.15-3.069 2.341-1.417 5.413-.759 6.836 1.576a1410.82 1410.82 0 0 1 9.103 15.165c1.263 2.134.358 5.193-1.868 6.543-2.164 1.312-4.35 2.589-6.524 3.885-.302.181-.593.38-.852.768 2.078 0 4.156.022 6.234-.006 2.044-.027 3.525.932 4.492 2.639.376.664.607 1.507.614 2.27.049 5.768.036 11.538.023 17.304zM24.239 8.076c-.102-.787-.01-1.598-.011-2.398-.002-1.721-.596-2.318-2.355-2.318-5.565-.004-11.13-.001-16.695.004-1.675.002-1.803.125-1.804 1.832-.007 10.333-.006 20.665-.007 30.997v10.683c.57-.095 1.006-.264 1.416-.216.883.104 1.274-.326 1.659-1.054 5.256-9.947 10.491-19.908 15.861-29.795 1.341-2.468 2.304-4.89 1.936-7.735zm24.128 5.06c-4.781-2.566-9.561-5.131-14.341-7.699-1.772-.952-2.257-.799-3.213.999-4.859 9.143-9.72 18.283-14.578 27.425-2.107 3.964-4.21 7.933-6.314 11.899l.132.147c.142-.072.288-.135.424-.216 11.069-6.598 22.138-13.193 33.195-19.81.376-.224.715-.606.925-.994a834.898 834.898 0 0 0 4.689-8.818c.839-1.595.674-2.077-.919-2.933zm18.532 26.906c.571-.34 1.152-.673 1.688-1.063.687-.5.865-1.135.396-1.912-3.043-5.046-6.067-10.102-9.123-15.142-.697-1.148-1.264-1.252-2.389-.579-13.752 8.203-27.503 16.408-41.254 24.615-.248.148-.486.314-.97.63.528.025.756.044.985.044 12.961.002 25.923.007 38.885-.015.466-.001.982-.173 1.389-.412 3.475-2.036 6.933-4.103 10.393-6.166zm1.5 9.742H5.403c-1.597 0-2.033.394-2.034 1.879-.004 5.7-.003 11.402.006 17.102.002 1.47.439 1.883 1.926 1.883 21.065.002 42.131.003 63.196.002 1.773 0 2.147-.381 2.147-2.185V52.062c0-1.944-.329-2.278-2.245-2.278zm-2.886 17.608c-1.766.015-3.533.003-5.299.002-1.766-.001-3.532.008-5.299-.003-1.316-.009-1.871-.567-1.874-1.896-.008-3.5-.011-7.001-.002-10.5.004-1.403.539-1.949 1.922-1.953 3.533-.009 7.065-.008 10.597.002 1.253.004 1.822.58 1.826 1.843.011 3.534.012 7.067.002 10.6-.004 1.332-.559 1.893-1.873 1.905zm-1.345-11.166h-7.909v7.947h7.909v-7.947zM49.454 67.392c-3.532.011-7.065.01-10.597-.002-1.251-.005-1.817-.584-1.82-1.849-.01-3.533-.013-7.067-.002-10.6.004-1.336.554-1.887 1.874-1.898 1.766-.015 3.532-.005 5.299-.004 1.766.001 3.532-.006 5.298.004 1.315.008 1.87.568 1.873 1.897.009 3.5.012 7.001.002 10.5-.003 1.396-.546 1.948-1.927 1.952zm-1.292-11.166h-7.909v7.946h7.909v-7.946zM33.447 67.392c-3.532.011-7.065.01-10.597-.002-1.25-.005-1.815-.584-1.819-1.85-.01-3.533-.012-7.067-.001-10.6.004-1.335.554-1.887 1.875-1.897 1.799-.015 3.599-.005 5.399-.004 1.732.001 3.465-.006 5.198.004 1.315.008 1.869.568 1.872 1.898.009 3.5.011 7.002.002 10.501-.004 1.394-.547 1.946-1.929 1.95zm-1.29-11.129h-7.909v7.945h7.909v-7.945zm-18.9 8.728c-2.416-.031-4.704-2.372-4.701-4.81.003-2.406 2.371-4.761 4.77-4.743 2.408.017 4.758 2.362 4.771 4.763.014 2.44-2.391 4.82-4.84 4.79zm.165-6.394c-1.105-.052-1.654.421-1.699 1.462-.051 1.188.408 1.739 1.485 1.783 1.114.045 1.705-.489 1.735-1.569.03-1.064-.481-1.627-1.521-1.676z" opacity=".2"/>
</svg>
