<svg xmlns="http://www.w3.org/2000/svg" width="68" height="77">
    <defs>
        <filter id="a">
            <feFlood flood-color="#FFF" flood-opacity="1" result="floodOut"/>
            <feComposite in="floodOut" in2="SourceGraphic" operator="atop" result="compOut"/>
            <feBlend in="compOut" in2="SourceGraphic"/>
        </filter>
    </defs>
    <path fill-rule="evenodd" d="M66.061 20.283c-1.269 6.389-1.244 12.848-1.048 19.312.084 2.797.411 5.592.371 8.383-.059 4.21-1.96 7.754-4.51 10.98-2.436 3.083-5.349 5.666-8.499 7.99-5.17 3.815-10.733 6.937-16.657 9.42-.776.326-1.527.583-2.396.223-8.916-3.693-17.158-8.437-23.899-15.47-2.799-2.918-5.059-6.221-5.903-10.26a17.316 17.316 0 0 1-.325-4.555c.5-8.161.711-16.323-.347-24.449-.354-2.722-1.148-5.392-1.823-8.063-.345-1.365.098-2.273 1.446-2.319 8.29-.294 15.795-3.214 23.051-6.913 2.519-1.284 4.946-2.751 7.381-4.191.886-.524 1.59-.498 2.475.046 7.819 4.808 16.017 8.731 25.135 10.385 1.664.303 3.375.364 5.067.488 1.224.09 1.778.628 1.727 1.897-.403 2.313-.773 4.714-1.246 7.096zm-8.662-6.95c-7.959-1.841-15.265-5.264-22.256-9.404-.762-.45-1.303-.458-2.07.005-6.555 3.949-13.411 7.25-20.849 9.184-2.468.642-5.002 1.029-7.547 1.541.006.087-.011.258.03.412 1.481 5.58 1.907 11.291 1.929 17.025.019 4.696-.252 9.39-.325 14.086-.023 1.452.005 2.948.319 4.355.81 3.629 2.958 6.531 5.522 9.106 6.141 6.169 13.552 10.382 21.515 13.701.416.173 1.054.062 1.501-.126a75.762 75.762 0 0 0 14.64-8.133c3.847-2.74 7.412-5.789 9.991-9.82 1.609-2.516 2.649-5.22 2.482-8.276-.119-2.195-.289-4.389-.353-6.586-.209-7.197-.271-14.39 1.198-21.497.306-1.482.528-2.982.781-4.422-2.261-.395-4.409-.665-6.508-1.151zM46.27 55.862c-8.166.006-16.331.006-24.497 0-3.059-.003-5.24-2.173-5.244-5.207-.007-4.965-.003-9.93-.002-14.896.001-3.288 2.029-5.362 5.312-5.44.226-.005.451-.042.803-.076-.323-4.267.901-7.93 4.257-10.691 2.185-1.796 4.698-2.755 7.558-2.64 3.435.138 6.185 1.677 8.392 4.243 2.231 2.592 2.971 5.668 2.689 9.03.249.081.311.116.375.121 4.2.28 5.76 1.96 5.76 6.205.001 4.632.007 9.265.003 13.897-.004 3.325-2.107 5.452-5.406 5.454zm-7.341-34.427c-2.798-1.902-6.902-1.907-9.711-.009-2.685 1.815-4.095 5.48-3.365 8.838h16.494c.707-3.363-.71-6.987-3.418-8.829zm9.608 13.959c-.001-1.532-.413-1.936-1.966-1.937H21.676c-1.613 0-2.013.395-2.013 1.992-.004 5.099-.001 10.196 0 15.295 0 1.599.374 1.975 2.017 1.978 4.132.005 8.265.001 12.397.001v.004c4.166 0 8.332.001 12.498-.001 1.554-.002 1.961-.403 1.962-1.939.004-5.13.004-10.262 0-15.393zm-12.023 9.57c-.689.494-.938 1.01-.856 1.807.054.527.035 1.065-.002 1.594-.068.965-.716 1.557-1.62 1.527-.858-.027-1.428-.612-1.497-1.548a3.786 3.786 0 0 1-.003-.698c.138-1.239-.089-2.198-1.226-3.054-1.376-1.036-1.627-2.691-1.035-4.135.656-1.601 2.26-2.751 3.832-2.748 1.618.005 3.347 1.31 3.903 2.949.515 1.514-.015 3.243-1.496 4.306zm-2.431-4.127c-.701-.057-1.002.309-1 1.012.003.683.362.946 1.001.953.703.007 1.048-.313 1.029-1.028-.017-.662-.335-.982-1.03-.937z" filter="url(#a)" opacity=".502"/>
</svg>
