<svg xmlns="http://www.w3.org/2000/svg" width="180" height="94">
    <path fill="#FFF" fill-rule="evenodd" d="M-.001 93.992V82.134h2.858v8.985h174.285v-9.987L180 82.134v11.858H-.001zm177.143-72.204H180V72.16h-2.858V21.788zm0-18.907H2.857v9.932l-2.858-.998V.007H180v11.808h-2.858V2.881zM2.857 72.16H-.001V21.788h2.858V72.16z" opacity=".4"/>
    <path fill="#FFF" fill-rule="evenodd" d="M156.223 41.792l-2.395-6.277h-9.077l-2.422 6.277h-2.034l8.02-20.004h2.088l7.909 20.004h-2.089zm-6.878-18.21l-4.009 10.393h7.908l-3.899-10.393zm.908 28.593l7.908 19.985h-2.088l-2.396-6.27H144.6l-2.422 6.27h-2.033l8.02-19.985h2.088zm2.841 12.176l-3.9-10.386-4.008 10.386h7.908zm-25.025 7.809l-7.434-19.929h2.116l5.179 14.329a50.531 50.531 0 0 1 1.253 3.975c.446-1.315.808-2.658 1.281-3.946l5.152-14.358h2.004l-7.35 19.929h-2.201zm-6.393-43.761c-.946-1.373-1.893-2.773-2.617-4.257.112 1.597.139 3.164.139 4.762v12.888h-1.837V21.843h2.088l9.272 13.534c.919 1.343 1.81 2.745 2.589 4.173-.055-1.766-.139-3.501-.139-5.267v-12.44h1.811v19.949h-2.089l-9.217-13.393zm-15.071 44.237c-5.57 0-9.301-4.2-9.301-10.441 0-6.214 3.759-10.44 9.328-10.44 5.54 0 9.356 4.255 9.356 10.495 0 6.216-3.787 10.386-9.383 10.386zm0-19.23c-4.428 0-7.407 3.526-7.407 8.733 0 5.347 2.951 8.844 7.434 8.844 4.483 0 7.463-3.497 7.463-8.762 0-5.262-3.008-8.815-7.49-8.815zm-1.025-17.891h-9.077l-2.422 6.277h-2.033l8.019-20.004h2.088l7.909 20.004h-2.089l-2.395-6.277zm-4.483-11.933l-4.009 10.393h7.908l-3.899-10.393zM78.409 58.779c-.946-1.371-1.893-2.769-2.617-4.253.112 1.596.139 3.163.139 4.757V72.16h-1.837V52.231h2.088l9.272 13.519c.919 1.344 1.81 2.742 2.59 4.171-.056-1.765-.14-3.499-.14-5.264V52.231h1.81V72.16h-2.088l-9.217-13.381zm-.03-28.194c4.372.953 7.574 1.793 7.574 5.771 0 4.315-3.786 5.856-7.462 5.856-4.929 0-7.908-2.577-7.908-6.835v-.169h1.81c0 3.699 2.45 5.463 6.237 5.463 3.425 0 5.513-1.541 5.513-4.119 0-2.688-2.088-3.306-6.71-4.397-3.036-.7-6.209-1.402-6.209-5.24 0-3.361 2.644-5.464 6.905-5.464 4.177 0 7.017 2.018 7.211 6.137h-1.837c-.167-3.027-2.284-4.539-5.513-4.539-3.119 0-4.957 1.372-4.957 3.754 0 2.606 2.2 3.081 5.346 3.782zM63.12 65.89h-9.077l-2.423 6.27h-2.032l8.019-19.985h2.088l7.908 19.985h-2.088l-2.395-6.27zm-4.483-11.925l-4.009 10.386h7.908l-3.899-10.386zm4.069-12.173l-8.297-10.508-3.788 3.476v7.032h-1.865V21.843h1.865v10.731l11.556-10.731h2.506l-8.939 8.154 9.385 11.795h-2.423zM37.512 72.16l-7.435-19.929h2.117l5.179 14.329c.473 1.317.89 2.632 1.253 3.975.445-1.315.807-2.658 1.28-3.946l5.152-14.358h2.004l-7.35 19.929h-2.2zM30.99 42.268c-5.57 0-9.3-4.202-9.3-10.45 0-6.22 3.758-10.449 9.327-10.449 5.541 0 9.356 4.257 9.356 10.505 0 6.22-3.787 10.394-9.383 10.394zm0-19.248c-4.428 0-7.407 3.531-7.407 8.742 0 5.35 2.951 8.855 7.434 8.855 4.483 0 7.463-3.505 7.463-8.772s-3.008-8.825-7.49-8.825zm-7.443 49.14h-1.893V52.231h1.893V72.16z"/>
</svg>
